# xmcd
#
# Track frame offsets: 
#        150
#        15096
#        23675
#        33254
#        43557
#        53380
#        63565
#        75739
#        85866
#        97537
#        110977
#        120103
#        128794
#        144212
#        162095
#        171722
#
# Disc length: 2487 seconds
#
# Revision: 0
# Processed by: cddbd v1.5.2PL0 Copyright (c) Steve Scherf et al.
# Submitted via: ExactAudioCopy v0.99pb5
#
DISCID=b409b510
DTITLE=Elvis Presley  - His Hand In Mine - 2008 by Vic Anesini 
DYEAR=1900
DGENRE=
TTITLE0=His Hand In Mine
TTITLE1=I'm Gonna Walk Dem Golden Stairs
TTITLE2=In My Father's House
TTITLE3=Milky White Way
TTITLE4=Known Only To Him
TTITLE5=I Believe In The Man In The Sky
TTITLE6=Joshua Fit The Battle
TTITLE7=He Knows Just What I Need
TTITLE8=Swing Down Sweet Chariot
TTITLE9=Mansion Over The Hilltop
TTITLE10=If We Never Meet Again
TTITLE11=Working On The Building
TTITLE12=(There'll Be) Peace In The Valley (For Me)
TTITLE13=It Is No Secret (What God Can Do)
TTITLE14=I Believe
TTITLE15=Take My Hand, Precious Lord
EXTD=
EXTT0=
EXTT1=
EXTT2=
EXTT3=
EXTT4=
EXTT5=
EXTT6=
EXTT7=
EXTT8=
EXTT9=
EXTT10=
EXTT11=
EXTT12=
EXTT13=
EXTT14=
EXTT15=
PLAYORDER=
